<?xml version="1.0" encoding="UTF-8" standalone="no"?>
<svg width="120px" height="20px" viewBox="0 0 120 20" version="1.1" xmlns="http://www.w3.org/2000/svg" xmlns:xlink="http://www.w3.org/1999/xlink" xmlns:sketch="http://www.bohemiancoding.com/sketch/ns">
    <!-- Generator: Sketch 3.4 (15588) - http://www.bohemiancoding.com/sketch -->
    <title>Imported Layers Copy 2</title>
    <desc>Created with Sketch.</desc>
    <defs></defs>
    <g id="Algemene-info" stroke="none" stroke-width="1" fill="none" fill-rule="evenodd" sketch:type="MSPage">
        <g id="Algemeen---detail---768" sketch:type="MSArtboardGroup" transform="translate(-30.000000, -110.000000)">
            <g id="Imported-Layers-Copy-2" sketch:type="MSLayerGroup" transform="translate(30.000000, 110.000000)">
                <path d="M0.465781991,0.321895735 L2.45004739,0.321895735 L2.45004739,19.1397156 L0.465781991,19.1397156 L0.465781991,0.321895735 Z" id="Fill-1" fill="#DCD1CE" sketch:type="MSShapeGroup"></path>
                <path d="M13.5867299,17.7218957 C15.4163033,17.7218957 16.7055924,16.9745972 17.7878673,15.8405687 L19.0254028,16.948436 C17.6849289,18.4441706 16.0606635,19.4490995 13.5349763,19.4490995 C9.87412322,19.4490995 6.88379147,16.6390521 6.88379147,12.4890995 C6.88379147,8.62236967 9.59090047,5.52909953 13.2767773,5.52909953 C17.2208531,5.52909953 19.4894787,8.67412322 19.4894787,12.5926066 C19.4894787,12.772891 19.4894787,12.9787678 19.4638863,13.2881517 L8.89535545,13.2881517 C9.1785782,16.0981991 11.2407583,17.7218957 13.5867299,17.7218957 L13.5867299,17.7218957 Z M17.4784834,11.6900474 C17.2464455,9.26672986 15.8547867,7.20511848 13.2255924,7.20511848 C10.9313744,7.20511848 9.1785782,9.11260664 8.89535545,11.6900474 L17.4784834,11.6900474 L17.4784834,11.6900474 Z" id="Fill-2" fill="#DCD1CE" sketch:type="MSShapeGroup"></path>
                <path d="M21.6551659,5.812891 L23.8464455,5.812891 L28.3313744,16.8716588 L32.8430332,5.812891 L34.9825592,5.812891 L29.1821801,19.242654 L27.4288152,19.242654 L21.6551659,5.812891" id="Fill-3" fill="#DCD1CE" sketch:type="MSShapeGroup"></path>
                <path d="M43.8500474,17.7218957 C45.6801896,17.7218957 46.96891,16.9745972 48.0517536,15.8405687 L49.2892891,16.948436 C47.9488152,18.4441706 46.3245498,19.4490995 43.7988626,19.4490995 C40.1380095,19.4490995 37.1476777,16.6390521 37.1476777,12.4890995 C37.1476777,8.62236967 39.8547867,5.52909953 43.5412322,5.52909953 C47.4847393,5.52909953 49.7533649,8.67412322 49.7533649,12.5926066 C49.7533649,12.772891 49.7533649,12.9787678 49.7272038,13.2881517 L39.1581043,13.2881517 C39.4424645,16.0981991 41.5046445,17.7218957 43.8500474,17.7218957 L43.8500474,17.7218957 Z M47.7423697,11.6900474 C47.5109005,9.26672986 46.1192417,7.20511848 43.4894787,7.20511848 C41.1952607,7.20511848 39.4424645,9.11260664 39.1581043,11.6900474 L47.7423697,11.6900474 L47.7423697,11.6900474 Z" id="Fill-4" fill="#DCD1CE" sketch:type="MSShapeGroup"></path>
                <path d="M54.0591469,0.321895735 L56.043981,0.321895735 L56.043981,19.1397156 L54.0591469,19.1397156 L54.0591469,0.321895735 Z" id="Fill-5" fill="#DCD1CE" sketch:type="MSShapeGroup"></path>
                <path d="M64.3472986,0.321895735 L66.331564,0.321895735 L66.331564,19.1397156 L64.3472986,19.1397156 L64.3472986,0.321895735 Z" id="Fill-6" fill="#DCD1CE" sketch:type="MSShapeGroup"></path>
                <path d="M72.7757346,11.6900474 L83.3448341,11.6900474 C83.3709953,11.9994313 83.3709953,12.2053081 83.3709953,12.3861611 C83.3709953,16.3040758 81.1018009,19.4490995 77.1582938,19.4490995 C73.4724171,19.4490995 70.7653081,16.3558294 70.7653081,12.4890995 C70.7653081,8.33914692 73.7550711,5.52909953 77.4159242,5.52909953 C79.9421801,5.52909953 81.5658768,6.53459716 82.9063507,8.02976303 L81.6693839,9.13763033 C80.5865403,8.0036019 79.2978199,7.25630332 77.4676777,7.25630332 C75.1217062,7.25630332 73.0595261,8.88 72.7757346,11.6900474 L72.7757346,11.6900474 Z M72.7757346,13.2881517 C73.0595261,15.8661611 74.8123223,17.7736493 77.1065403,17.7736493 C79.7357346,17.7736493 81.1279621,15.7114692 81.36,13.2881517 L72.7757346,13.2881517 L72.7757346,13.2881517 Z" id="Fill-7" fill="#E67437" sketch:type="MSShapeGroup"></path>
                <path d="M85.5361137,5.812891 L87.7279621,5.812891 L92.212891,16.8716588 L96.7234123,5.812891 L98.8640758,5.812891 L93.0636967,19.242654 L91.3109005,19.242654 L85.5361137,5.812891" id="Fill-8" fill="#DCD1CE" sketch:type="MSShapeGroup"></path>
                <path d="M107.731564,17.7218957 C109.561706,17.7218957 110.850995,16.9745972 111.932701,15.8405687 L113.170237,16.948436 C111.830332,18.4441706 110.206066,19.4490995 107.67981,19.4490995 C104.018957,19.4490995 101.029763,16.6390521 101.029763,12.4890995 C101.029763,8.62236967 103.735735,5.52909953 107.42218,5.52909953 C111.365687,5.52909953 113.634313,8.67412322 113.634313,12.5926066 C113.634313,12.772891 113.634313,12.9787678 113.608152,13.2881517 L103.04019,13.2881517 C103.323412,16.0981991 105.385592,17.7218957 107.731564,17.7218957 L107.731564,17.7218957 Z M111.623886,11.6900474 C111.39128,9.26672986 109.999621,7.20511848 107.370427,7.20511848 C105.076209,7.20511848 103.323412,9.11260664 103.04019,11.6900474 L111.623886,11.6900474 L111.623886,11.6900474 Z" id="Fill-9" fill="#DCD1CE" sketch:type="MSShapeGroup"></path>
                <path d="M117.939526,0.321895735 L119.92436,0.321895735 L119.92436,19.1397156 L117.939526,19.1397156 L117.939526,0.321895735 Z" id="Fill-10" fill="#DCD1CE" sketch:type="MSShapeGroup"></path>
            </g>
        </g>
    </g>
</svg>