<?xml version="1.0" encoding="UTF-8" standalone="no"?>
<svg width="63px" height="40px" viewBox="0 0 63 40" version="1.1" xmlns="http://www.w3.org/2000/svg" xmlns:xlink="http://www.w3.org/1999/xlink" xmlns:sketch="http://www.bohemiancoding.com/sketch/ns">
    <!-- Generator: Sketch 3.4.4 (17249) - http://www.bohemiancoding.com/sketch -->
    <title>wall</title>
    <desc>Created with Sketch.</desc>
    <defs></defs>
    <g id="Page-1" stroke="none" stroke-width="1" fill="none" fill-rule="evenodd" sketch:type="MSPage">
        <g id="wall" sketch:type="MSLayerGroup" fill="#FFFFFF">
            <g id="Shape" sketch:type="MSShapeGroup">
                <g id="Cookiewall">
                    <g id="icons">
                        <g id="wall">
                            <path d="M11.6697368,2.00989658 L11.6697368,2.00989658 L11.6697368,9.52885179 C11.6697368,10.0847614 12.1200676,10.5387484 12.6672593,10.5387484 L27.8445828,10.5387484 C28.3914087,10.5387484 28.8421053,10.0859936 28.8421053,9.52885179 L28.8421053,2.00989658 C28.8421053,1.45398699 28.3917745,1 27.8445828,1 L12.6672593,1 C12.1204334,1 11.6697368,1.45275473 11.6697368,2.00989658 L11.6697368,2.00989658 L11.6697368,2.00989658 Z M10.6697368,2.00989658 C10.6697368,0.899861348 11.5687447,0 12.6672593,0 L27.8445828,0 C28.947784,0 29.8421053,0.905426231 29.8421053,2.00989658 L29.8421053,9.52885179 C29.8421053,10.638887 28.9430974,11.5387484 27.8445828,11.5387484 L12.6672593,11.5387484 C11.5640581,11.5387484 10.6697368,10.6333221 10.6697368,9.52885179 L10.6697368,2.00989658 L10.6697368,2.00989658 Z M11.8947368,30.2157259 L11.8947368,37.7346811 C11.8947368,38.2905907 12.3450676,38.7445777 12.8922593,38.7445777 L28.0695828,38.7445777 C28.6164087,38.7445777 29.0671053,38.291823 29.0671053,37.7346811 L29.0671053,30.2157259 C29.0671053,29.6598163 28.6167745,29.2058293 28.0695828,29.2058293 L12.8922593,29.2058293 C12.3454334,29.2058293 11.8947368,29.6585841 11.8947368,30.2157259 L11.8947368,30.2157259 Z M10.8947368,30.2157259 C10.8947368,29.1056907 11.7937447,28.2058293 12.8922593,28.2058293 L28.0695828,28.2058293 C29.172784,28.2058293 30.0671053,29.1112556 30.0671053,30.2157259 L30.0671053,37.7346811 C30.0671053,38.8447164 29.1680974,39.7445777 28.0695828,39.7445777 L12.8922593,39.7445777 C11.7890581,39.7445777 10.8947368,38.8391515 10.8947368,37.7346811 L10.8947368,30.2157259 L10.8947368,30.2157259 Z M33.4592105,2.00989658 L33.4592105,9.52885179 C33.4592105,10.0847614 33.9095412,10.5387484 34.456733,10.5387484 L49.6340565,10.5387484 C50.1808824,10.5387484 50.6315789,10.0859936 50.6315789,9.52885179 L50.6315789,2.00989658 C50.6315789,1.45398699 50.1812482,1 49.6340565,1 L34.456733,1 C33.9099071,1 33.4592105,1.45275473 33.4592105,2.00989658 L33.4592105,2.00989658 Z M32.4592105,2.00989658 C32.4592105,0.899861348 33.3582184,0 34.456733,0 L49.6340565,0 C50.7372577,0 51.6315789,0.905426231 51.6315789,2.00989658 L51.6315789,9.52885179 C51.6315789,10.638887 50.7325711,11.5387484 49.6340565,11.5387484 L34.456733,11.5387484 C33.3535318,11.5387484 32.4592105,10.6333221 32.4592105,9.52885179 L32.4592105,2.00989658 L32.4592105,2.00989658 Z M33.6842105,30.2157259 L33.6842105,37.7346811 C33.6842105,38.2905907 34.1345412,38.7445777 34.681733,38.7445777 L49.8590565,38.7445777 C50.4058824,38.7445777 50.8565789,38.291823 50.8565789,37.7346811 L50.8565789,30.2157259 C50.8565789,29.6598163 50.4062482,29.2058293 49.8590565,29.2058293 L34.681733,29.2058293 C34.1349071,29.2058293 33.6842105,29.6585841 33.6842105,30.2157259 L33.6842105,30.2157259 Z M32.6842105,30.2157259 C32.6842105,29.1056907 33.5832184,28.2058293 34.681733,28.2058293 L49.8590565,28.2058293 C50.9622577,28.2058293 51.8565789,29.1112556 51.8565789,30.2157259 L51.8565789,37.7346811 C51.8565789,38.8447164 50.9575711,39.7445777 49.8590565,39.7445777 L34.681733,39.7445777 C33.5785318,39.7445777 32.6842105,38.8391515 32.6842105,37.7346811 L32.6842105,30.2157259 L32.6842105,30.2157259 Z M1,16.1128112 L1,23.6317665 C1,24.187676 1.45033072,24.641663 1.99752245,24.641663 L17.174846,24.641663 C17.7216719,24.641663 18.1723684,24.1889083 18.1723684,23.6317665 L18.1723684,16.1128112 C18.1723684,15.5569017 17.7220377,15.1029147 17.174846,15.1029147 L1.99752245,15.1029147 C1.45069654,15.1029147 1,15.5556694 1,16.1128112 L1,16.1128112 Z M0,16.1128112 C0,15.002776 0.899007887,14.1029147 1.99752245,14.1029147 L17.174846,14.1029147 C18.2780472,14.1029147 19.1723684,15.0083409 19.1723684,16.1128112 L19.1723684,23.6317665 C19.1723684,24.7418017 18.2733605,25.641663 17.174846,25.641663 L1.99752245,25.641663 C0.894321264,25.641663 0,24.7362368 0,23.6317665 L0,16.1128112 L0,16.1128112 Z M22.7894737,16.1128112 L22.7894737,23.6317665 C22.7894737,24.187676 23.2398044,24.641663 23.7869961,24.641663 L38.9643197,24.641663 C39.5111456,24.641663 39.9618421,24.1889083 39.9618421,23.6317665 L39.9618421,16.1128112 C39.9618421,15.5569017 39.5115114,15.1029147 38.9643197,15.1029147 L23.7869961,15.1029147 C23.2401702,15.1029147 22.7894737,15.5556694 22.7894737,16.1128112 L22.7894737,16.1128112 Z M21.7894737,16.1128112 C21.7894737,15.002776 22.6884816,14.1029147 23.7869961,14.1029147 L38.9643197,14.1029147 C40.0675208,14.1029147 40.9618421,15.0083409 40.9618421,16.1128112 L40.9618421,23.6317665 C40.9618421,24.7418017 40.0628342,25.641663 38.9643197,25.641663 L23.7869961,25.641663 C22.6837949,25.641663 21.7894737,24.7362368 21.7894737,23.6317665 L21.7894737,16.1128112 L21.7894737,16.1128112 Z M44.5789474,16.1128112 L44.5789474,23.6317665 C44.5789474,24.187676 45.0292781,24.641663 45.5764698,24.641663 L60.7537933,24.641663 C61.3006193,24.641663 61.7513158,24.1889083 61.7513158,23.6317665 L61.7513158,16.1128112 C61.7513158,15.5569017 61.3009851,15.1029147 60.7537933,15.1029147 L45.5764698,15.1029147 C45.0296439,15.1029147 44.5789474,15.5556694 44.5789474,16.1128112 L44.5789474,16.1128112 Z M43.5789474,16.1128112 C43.5789474,15.002776 44.4779553,14.1029147 45.5764698,14.1029147 L60.7537933,14.1029147 C61.8569945,14.1029147 62.7513158,15.0083409 62.7513158,16.1128112 L62.7513158,23.6317665 C62.7513158,24.7418017 61.8523079,25.641663 60.7537933,25.641663 L45.5764698,25.641663 C44.4732686,25.641663 43.5789474,24.7362368 43.5789474,23.6317665 L43.5789474,16.1128112 L43.5789474,16.1128112 L43.5789474,16.1128112 Z" id="Shape"></path>
                        </g>
                    </g>
                </g>
            </g>
        </g>
    </g>
</svg>